<svg xmlns="http://www.w3.org/2000/svg" xmlns:xlink="http://www.w3.org/1999/xlink" viewBox="0 0 167 48"><defs><linearGradient id="a" x1="17.75" y1="38.75" x2="23.25" y2="33.25" gradientUnits="userSpaceOnUse"><stop offset="0" stop-color="#5bc341"/><stop offset="1" stop-color="#238a2b" stop-opacity="0.6"/></linearGradient><linearGradient id="b" x1="7.03" y1="40.97" x2="40.97" y2="7.03" gradientUnits="userSpaceOnUse"><stop offset="0" stop-color="#429378"/><stop offset="1" stop-color="#aed34e"/></linearGradient><linearGradient id="c" x1="68.69" y1="32.69" x2="74.31" y2="27.06" gradientUnits="userSpaceOnUse"><stop offset="0" stop-color="#aed34e"/><stop offset="1" stop-color="#429378"/></linearGradient><linearGradient id="d" x1="114.69" y1="32.31" x2="131.31" y2="15.69" xlink:href="#b"/><linearGradient id="e" x1="114.07" y1="31.69" x2="129.44" y2="16.31" xlink:href="#c"/><linearGradient id="f" x1="58" y1="33" x2="76" y2="15" xlink:href="#b"/><linearGradient id="g" x1="71.5" y1="24" x2="83" y2="24" xlink:href="#b"/><linearGradient id="h" x1="90.62" y1="11.38" x2="97.37" y2="18.13" xlink:href="#b"/><linearGradient id="i" x1="96.12" y1="37.62" x2="104.87" y2="28.87" xlink:href="#c"/><linearGradient id="j" x1="87" y1="24" x2="107" y2="24" xlink:href="#b"/><linearGradient id="k" x1="136" y1="32" x2="149" y2="19" xlink:href="#c"/><linearGradient id="l" x1="153" y1="35" x2="153" y2="13" xlink:href="#b"/><linearGradient id="m" x1="157.5" y1="31.5" x2="169.5" y2="19.5" xlink:href="#c"/></defs><title>Azom_Logo_With_Icon_Gradients_1_1</title><path d="M74,13H68L60,35h6l1.5-4h8L77,35h6ZM69,27l2.5-7L74,27Z" style="fill:#70b750"/><polygon points="89 13 89 18 97.5 18 87 35 106 35 106 30 96.5 30 107 13 89 13" style="fill:#70b750"/><polygon points="163 13 157 13 153 25 149 13 143 13 139 35 145 35 147 22.5 152 35 153 35 154 35 159 22.5 161 35 167 35 163 13" style="fill:#70b750"/><path d="M123,12.5A11.76,11.76,0,0,0,111,24a12,12,0,0,0,24,0A11.76,11.76,0,0,0,123,12.5ZM123,30a6,6,0,1,1,6-6A6,6,0,0,1,123,30Z" style="fill:#70b750"/><polygon points="19 32 19 40 26 36 19 32" style="opacity:0.5;fill:url(#a)"/><path d="M24,0A24,24,0,1,0,48,24,24,24,0,0,0,24,0Zm9.5,31.5L19,23v9l7,4-7,4-7,4V4L47,24Z" style="fill:url(#b)"/><polygon points="75.75 31.25 74.25 27 68.75 27 67.25 31.25 75.75 31.25" style="fill:url(#c)"/><path d="M123,12.5A11.76,11.76,0,0,0,111,24a12,12,0,0,0,24,0A11.76,11.76,0,0,0,123,12.5ZM123,30a6,6,0,1,1,6-6A6,6,0,0,1,123,30Z" style="fill:url(#d)"/><path d="M117,24.63q0-.31,0-.63t0-.63a11.62,11.62,0,0,1,9-10.49,12.33,12.33,0,0,0-3-.38A11.76,11.76,0,0,0,111,24a11.76,11.76,0,0,0,12,11.5,12.33,12.33,0,0,0,3-.38A11.62,11.62,0,0,1,117,24.63Z" style="fill:url(#e)"/><polygon points="74 13 66 35 60 35 68 13 74 13" style="fill:url(#f)"/><polygon points="74 13 71.5 20 77 35 83 35 74 13" style="fill:url(#g)"/><polygon points="89 13 89 18 97.5 18 100.5 13 89 13" style="fill:url(#h)"/><polygon points="106 30 96.5 30 93.5 35 106 35 106 30" style="fill:url(#i)"/><polygon points="100.5 13 87 35 93.5 35 107 13 100.5 13" style="fill:url(#j)"/><polygon points="143 13 147 22.5 145 35 139 35 143 13" style="fill:url(#k)"/><polygon points="143 13 149 13 153 25 157 13 163 13 159 22.5 154 35 152 35 147 22.5 143 13" style="fill:url(#l)"/><polygon points="163 13 159 22.5 161 35 167 35 163 13" style="fill:url(#m)"/></svg>